<svg width="10" height="10" viewBox="0 0 10 10" fill="none" xmlns="http://www.w3.org/2000/svg">
<path d="M8.75024 2.68689C8.80752 2.68694 8.86431 2.69821 8.91724 2.72009C8.97036 2.7421 9.01915 2.77513 9.05981 2.8158C9.10028 2.85637 9.13261 2.90445 9.15454 2.9574C9.17653 3.0105 9.18774 3.06789 9.18774 3.12537C9.18769 3.18266 9.17644 3.23941 9.15454 3.29236C9.13253 3.34549 9.10048 3.39427 9.05981 3.43494L5.30981 7.18494C5.2692 7.22563 5.22034 7.25763 5.16724 7.27966C5.11429 7.3016 5.05756 7.31281 5.00024 7.31287C4.94275 7.31287 4.88539 7.30168 4.83228 7.27966C4.77914 7.25762 4.73033 7.22566 4.6897 7.18494V7.18396L0.940674 3.43494C0.899931 3.3943 0.867026 3.34551 0.844971 3.29236C0.823051 3.23942 0.811822 3.18266 0.811768 3.12537C0.811768 3.06789 0.822965 3.0105 0.844971 2.9574C0.867026 2.90425 0.899931 2.85546 0.940674 2.81482C0.981189 2.77436 1.02938 2.74204 1.08228 2.72009C1.13538 2.69809 1.19276 2.68689 1.25024 2.68689C1.30754 2.68694 1.3643 2.69817 1.41724 2.72009C1.47039 2.74215 1.51917 2.77505 1.55981 2.8158L4.99927 6.25623L8.4397 2.8158H8.44067C8.48134 2.77513 8.52915 2.7421 8.58228 2.72009C8.63537 2.69812 8.69278 2.68689 8.75024 2.68689Z" fill="#272727" stroke="#272727" stroke-width="0.25"/>
</svg>
