<svg width="34" height="34" viewBox="0 0 34 34" fill="none" xmlns="http://www.w3.org/2000/svg">
<g clip-path="url(#clip0_53_148)">
<mask id="mask0_53_148" style="mask-type:alpha" maskUnits="userSpaceOnUse" x="0" y="0" width="34" height="34">
<circle cx="16.8067" cy="16.8067" r="16.8067" fill="#F578A5"/>
</mask>
<g mask="url(#mask0_53_148)">
<circle cx="16.8067" cy="16.8067" r="16.8067" fill="#23A6F0"/>
<path d="M24.3232 25.7151C24.9235 25.7356 25.3992 26.2278 25.3994 26.8284V33.7375H9.07617V26.3479C9.07639 25.7176 9.59855 25.2131 10.2285 25.2346L24.3232 25.7151Z" fill="white" stroke="white" stroke-width="0.735294"/>
<g clip-path="url(#clip1_53_148)">
<path d="M12.3139 11.8018C15.739 7.03949 14.2657 3.16316 14.2698 3.15857C14.1972 2.96444 14.2957 2.74824 14.4899 2.67562C14.5878 2.63899 14.6966 2.6449 14.7899 2.69187C20.9716 5.64986 23.6318 9.46837 24.1412 12.9207C24.3437 14.262 24.2171 15.6325 23.7723 16.914C23.3647 18.0965 22.6858 19.1671 21.79 20.04C20.0669 21.7041 17.6588 22.4713 15.2821 21.6936C14.6741 21.4952 14.1005 21.2042 13.5813 20.8308C12.5399 20.0834 11.7499 19.0373 11.3159 17.8311C10.8555 16.541 10.8408 15.1338 11.2744 13.8345C11.5138 13.1072 11.8645 12.4215 12.3139 11.8018Z" fill="white"/>
<path d="M14.3451 3.28133C14.1946 3.13892 14.1879 2.90141 14.3303 2.75087C14.4728 2.60033 14.7103 2.59369 14.8608 2.7361C14.8719 2.74658 14.8823 2.75771 14.892 2.76947C14.9058 2.78188 17.8904 5.91035 18.3168 11.957L18.3212 12.0137C18.4133 13.427 18.3678 14.8458 18.1855 16.2503L20.2263 14.6863C20.3973 14.5691 20.6309 14.6127 20.748 14.7836C20.8541 14.9383 20.8296 15.1476 20.6907 15.2737L18.0236 17.3114C17.4265 20.8217 15.3217 25.7878 18.1081 28.896C18.2423 29.054 18.2231 29.2908 18.0651 29.425C17.9148 29.5527 17.6912 29.5423 17.5535 29.401C14.2121 25.6766 16.6435 21.0628 17.3089 17.0729L17.3176 17.017C17.5882 15.4292 17.6809 13.8163 17.5941 12.208L15.1953 10.4504C15.0242 10.3335 14.9803 10.0999 15.0972 9.92884C15.2142 9.75774 15.4477 9.71386 15.6188 9.83081C15.6259 9.83566 15.6328 9.84073 15.6395 9.84607L17.4982 11.2145C16.9184 5.97293 14.356 3.2939 14.3451 3.28133Z" fill="#56B280"/>
</g>
</g>
</g>
<defs>
<clipPath id="clip0_53_148">
<rect width="33.6134" height="33.6134" fill="white"/>
</clipPath>
<clipPath id="clip1_53_148">
<rect width="20.6274" height="20.6274" fill="white" transform="translate(1.9812 16.4659) rotate(-48)"/>
</clipPath>
</defs>
</svg>
