<svg width="64" height="64" viewBox="0 0 64 64" fill="none" xmlns="http://www.w3.org/2000/svg">
<g clip-path="url(#clip0_5_761)">
<mask id="mask0_5_761" style="mask-type:alpha" maskUnits="userSpaceOnUse" x="0" y="0" width="64" height="64">
<circle cx="31.681" cy="31.681" r="31.681" fill="#F578A5"/>
</mask>
<g mask="url(#mask0_5_761)">
<circle cx="31.681" cy="31.681" r="31.681" fill="white"/>
<path d="M45.8499 48.4729C46.9816 48.5115 47.879 49.4401 47.8792 50.5725V63.5959H17.1077V49.6672C17.1077 48.4788 18.0928 47.5272 19.2805 47.5676L45.8499 48.4729Z" fill="#272727" stroke="#272727" stroke-width="1.38604"/>
<g clip-path="url(#clip1_5_761)">
<path d="M23.2121 22.2461C29.6685 13.2691 26.8913 5.96215 26.8991 5.95348C26.7622 5.58755 26.9479 5.18001 27.3139 5.04312C27.4984 4.97407 27.7035 4.9852 27.8795 5.07374C39.5321 10.6496 44.5465 17.8476 45.5068 24.3553C45.8885 26.8837 45.6498 29.467 44.8115 31.8828C44.0431 34.1118 42.7634 36.13 41.0748 37.7753C37.8267 40.9123 33.2873 42.3583 28.8072 40.8923C27.6612 40.5184 26.5798 39.9699 25.6012 39.266C23.6381 37.8571 22.149 35.8853 21.3309 33.6115C20.463 31.1797 20.4353 28.5271 21.2526 26.0778C21.7039 24.7069 22.3649 23.4143 23.2121 22.2461Z" fill="#272727"/>
<path d="M27.0409 6.18501C26.7572 5.91656 26.7446 5.46884 27.0131 5.18507C27.2815 4.9013 27.7293 4.88878 28.013 5.15723C28.0339 5.17698 28.0535 5.19797 28.0718 5.22013C28.0978 5.24353 33.7238 11.1408 34.5276 22.5388L34.5359 22.6457C34.7095 25.3097 34.6238 27.9843 34.2802 30.6318L38.1272 27.6836C38.4494 27.4627 38.8897 27.5448 39.1106 27.867C39.3105 28.1587 39.2644 28.5532 39.0025 28.7908L33.975 32.632C32.8494 39.249 28.8818 48.6102 34.1342 54.4692C34.3872 54.767 34.3509 55.2134 34.0532 55.4663C33.7698 55.7071 33.3484 55.6874 33.0888 55.4212C26.7902 48.4006 31.3734 39.7034 32.6277 32.1824L32.6442 32.077C33.1542 29.0841 33.329 26.0436 33.1654 23.012L28.6435 19.6989C28.321 19.4784 28.2383 19.0382 28.4587 18.7157C28.6792 18.3932 29.1194 18.3104 29.4419 18.5309C29.4552 18.54 29.4683 18.5496 29.481 18.5597L32.9846 21.1391C31.8917 11.2587 27.0614 6.2087 27.0409 6.18501Z" fill="white"/>
</g>
</g>
</g>
<defs>
<clipPath id="clip0_5_761">
<rect width="63.362" height="63.362" fill="white"/>
</clipPath>
<clipPath id="clip1_5_761">
<rect width="38.8832" height="38.8832" fill="white" transform="translate(3.73471 31.0383) rotate(-48)"/>
</clipPath>
</defs>
</svg>
