<svg width="28" height="28" viewBox="0 0 28 28" fill="none" xmlns="http://www.w3.org/2000/svg">
<g clip-path="url(#clip0_53_206)">
<path d="M27.5644 25.5878C25.5572 22.1176 22.4639 19.6293 18.854 18.4497C25.1308 14.7131 25.0088 5.5828 18.6344 2.01523C12.2599 -1.55235 4.41391 3.11846 4.51152 10.4227C4.55561 13.7221 6.31056 16.7618 9.14593 18.4497C5.53604 19.628 2.4428 22.1163 0.435538 25.5878C0.011196 26.2797 0.494983 27.1715 1.30635 27.193C1.70281 27.2036 2.07166 26.9907 2.26092 26.6422C4.74395 22.3509 9.13275 19.7888 14 19.7888C18.8672 19.7888 23.256 22.3509 25.739 26.6422C26.1263 27.3554 27.1406 27.382 27.5646 26.6899C27.7718 26.3517 27.7718 25.9259 27.5644 25.5878ZM6.6194 10.2995C6.6194 4.61789 12.7699 1.06691 17.6903 3.9077C22.6106 6.74848 22.6106 13.8504 17.6903 16.6912C16.5683 17.339 15.2955 17.68 14 17.68C9.9256 17.6757 6.62377 14.3738 6.6194 10.2995Z" fill="#23A6F0"/>
</g>
<defs>
<clipPath id="clip0_53_206">
<rect width="28" height="28" fill="white"/>
</clipPath>
</defs>
</svg>
